# Blender 4.2.1 LTS
# www.blender.org
o Plane.001
v -0.834873 -0.128413 0.623867
v -0.237530 0.108583 -0.330183
v -0.477346 -0.004994 -0.086459
v -0.307745 0.059345 -0.397508
v -0.428213 0.059345 -0.397508
v -0.479708 0.108583 -0.327897
v -0.658770 -0.012985 0.157714
v -0.720924 -0.014761 0.157714
v -0.000000 0.162503 -1.752347
v -0.000000 0.254509 -0.684969
v -0.000000 0.371615 -0.258522
v -0.000000 0.251424 -0.090139
v -0.000000 0.115581 -0.330490
v 0.000000 -0.037069 -0.754279
v -0.237493 0.108163 -0.329853
v -0.055599 0.255460 -0.685320
v -0.048470 0.371615 -0.258522
v -0.272095 0.084558 -0.363452
v -0.000000 0.229150 -0.182880
v -0.000000 0.132211 -0.301942
v -0.121365 0.132211 -0.301368
v -0.477708 0.472548 0.142670
v -0.242753 0.112414 -0.312284
v -0.353228 0.127829 -0.312284
v -0.354691 0.278499 -0.411516
v -0.357445 -0.072534 -0.804444
v 0.834873 -0.128413 0.623867
v 0.237530 0.108583 -0.330183
v 0.477346 -0.004994 -0.086459
v 0.307745 0.059345 -0.397508
v 0.428213 0.059345 -0.397508
v 0.479708 0.108583 -0.327897
v 0.658770 -0.012985 0.157714
v 0.720924 -0.014760 0.157714
v 0.237493 0.108163 -0.329853
v 0.055599 0.255460 -0.685320
v 0.048470 0.371615 -0.258522
v 0.272095 0.084558 -0.363452
v 0.121365 0.132211 -0.301368
v 0.477708 0.472548 0.142670
v 0.242753 0.112414 -0.312284
v 0.353228 0.127829 -0.312284
v 0.354691 0.278499 -0.411516
v 0.357445 -0.072534 -0.804444
vn 0.5163 -0.8490 0.1123
vn -0.0040 -0.9049 -0.4256
vn 0.0055 -0.8099 0.5865
vn -0.0278 0.9727 0.2304
vn -0.4700 -0.7989 -0.3754
vn 0.0023 0.9702 0.2424
vn 1.0000 -0.0000 -0.0000
vn -0.7588 0.4067 0.5087
vn -0.0000 0.9643 -0.2648
vn -0.0000 0.8139 0.5810
vn 0.0176 0.9962 -0.0859
vn 0.0303 -0.9404 0.3387
vn -0.6888 -0.7109 -0.1422
vn 0.4810 -0.8525 0.2047
vn -0.7338 0.6725 -0.0968
vn -0.7834 0.6029 -0.1510
vn 0.5255 -0.8490 0.0553
vn 0.0270 -0.8154 0.5782
vn 0.0030 -0.7755 0.6314
vn -0.8723 0.3677 -0.3224
vn -0.1281 -0.9182 0.3749
vn 0.8612 0.3761 -0.3420
vn 0.8319 0.5549 -0.0096
vn -0.1125 -0.8066 0.5803
vn -0.7536 -0.6065 0.2534
vn -0.5163 -0.8490 0.1123
vn 0.0040 -0.9049 -0.4256
vn -0.0055 -0.8099 0.5865
vn 0.0278 0.9727 0.2304
vn 0.4700 -0.7989 -0.3754
vn -0.0023 0.9702 0.2424
vn 0.7588 0.4067 0.5087
vn -0.0182 0.9647 -0.2628
vn -0.0176 0.9962 -0.0859
vn -0.0303 -0.9404 0.3387
vn 0.6888 -0.7109 -0.1422
vn -0.0708 -0.8855 0.4591
vn 0.7338 0.6725 -0.0968
vn 0.7834 0.6029 -0.1510
vn -0.5255 -0.8490 0.0553
vn -0.0270 -0.8154 0.5782
vn -0.0030 -0.7755 0.6314
vn 0.8723 0.3677 -0.3224
vn 0.1281 -0.9182 0.3749
vn -0.8612 0.3761 -0.3420
vn -0.8319 0.5549 -0.0096
vn 0.1125 -0.8066 0.5803
vn 0.7536 -0.6065 0.2534
vn -0.0000 -0.8164 0.5775
vn -0.4664 -0.8022 -0.3728
vn 0.0182 0.9647 -0.2628
vn 0.0708 -0.8855 0.4591
vn 0.0024 -0.8641 0.5033
vn 0.4664 -0.8022 -0.3728
vn -0.4810 -0.8525 0.2047
vn -0.0024 -0.8641 0.5033
vt 0.192853 1.000000
vt 0.125748 0.666567
vt 0.196379 0.892998
vt 0.251495 0.948074
vt 0.276577 0.666567
vt 0.301385 0.717580
vt 0.276577 0.738143
vt 0.189623 0.805999
vt 0.202775 0.792785
vt 0.125748 0.975003
vt 0.821199 0.028056
vt 0.875706 0.206203
vt 0.793206 0.173971
vt 0.038960 0.290193
vt 0.106690 0.348110
vt 0.000000 0.333670
vt 0.126925 0.207635
vt 0.028832 0.281515
vt 0.388202 0.000000
vt 0.137559 0.221432
vt 0.054563 0.394799
vt 0.143867 0.492901
vt 0.388201 0.666567
vt 0.074171 0.363165
vt 0.017002 0.355710
vt 0.875707 0.853044
vt 0.875707 0.426522
vt 0.889503 0.434364
vt 0.048001 0.387737
vt 0.301658 0.674941
vt 0.304541 0.666567
vt 0.302650 0.684920
vt 0.308375 0.683926
vt 0.307424 0.674930
vt 0.308577 0.675126
vt 0.309729 0.672539
vt 0.312564 0.666567
vt 0.313224 0.671645
vt 0.313224 0.680394
vt 0.308577 0.666567
vt 0.304541 0.675463
vt 0.058642 1.000000
vt 0.055117 0.892998
vt 0.125748 0.666567
vt 0.000000 0.948075
vt 0.276303 0.687129
vt 0.251495 0.738143
vt 0.251495 0.666567
vt 0.061873 0.805999
vt 0.048721 0.792785
vt 0.125748 0.975003
vt 0.427161 0.376374
vt 0.388202 0.332897
vt 0.494891 0.318457
vt 0.515127 0.458932
vt 0.525760 0.445134
vt 0.417034 0.385051
vt 0.776403 0.666566
vt 0.442765 0.271767
vt 0.532069 0.173665
vt 0.776403 0.000000
vt 0.462372 0.303402
vt 0.875707 0.000000
vt 0.889503 0.418680
vt 0.875707 0.426522
vt 0.436203 0.278830
vt 0.405204 0.310857
vt 0.304541 0.674941
vt 0.305533 0.684920
vt 0.307424 0.666567
vt 0.309527 0.683926
vt 0.309729 0.675126
vt 0.308577 0.674930
vt 0.313224 0.672539
vt 0.316718 0.671645
vt 0.316058 0.666567
vt 0.316718 0.680394
vt 0.309729 0.666567
vt 0.307424 0.675463
vt 0.301658 0.681978
vt 0.776403 0.044359
vt 0.818480 -0.000000
vt 0.844694 0.066876
vt 0.848391 0.075913
vt 0.776403 0.490145
vt 0.276577 0.722731
s 0
f 2/1/1 1/2/1 3/3/1
f 2/1/2 3/3/2 6/4/2
f 6/5/3 4/6/3 2/7/3
f 7/8/4 8/9/4 1/2/4
f 7/8/5 3/3/5 1/2/5
f 2/1/6 6/10/6 1/2/6
f 19/11/7 14/12/7 10/13/7
f 17/14/8 15/15/8 12/16/8
f 10/17/9 17/14/9 11/18/9
f 11/18/10 17/14/10 12/16/10
f 9/19/11 16/20/11 10/17/11
f 13/21/12 15/15/12 14/22/12
f 14/22/13 15/15/13 9/23/13
f 12/16/14 21/24/14 19/25/14
f 9/19/15 15/15/15 16/20/15
f 16/20/16 15/15/16 17/14/16
f 9/26/17 15/27/17 18/28/17
f 13/21/18 21/24/18 15/15/18
f 20/29/19 19/25/19 21/24/19
f 25/30/20 26/31/20 22/32/20
f 26/33/21 23/34/21 24/35/21
f 23/36/22 26/37/22 25/38/22
f 25/38/23 22/39/23 23/36/23
f 23/34/24 22/40/24 24/35/24
f 26/31/25 24/41/25 22/32/25
f 28/42/26 29/43/26 27/44/26
f 28/42/27 32/45/27 29/43/27
f 30/46/28 32/47/28 28/48/28
f 33/49/29 27/44/29 34/50/29
f 29/43/30 33/49/30 27/44/30
f 28/42/31 27/44/31 32/51/31
f 37/52/32 12/53/32 35/54/32
f 10/55/33 37/52/33 36/56/33
f 11/57/10 12/53/10 37/52/10
f 9/58/34 10/55/34 36/56/34
f 13/59/35 14/60/35 35/54/35
f 14/60/36 9/61/36 35/54/36
f 12/53/37 39/62/37 35/54/37
f 9/58/38 36/56/38 35/54/38
f 36/56/39 37/52/39 35/54/39
f 9/63/40 38/64/40 35/65/40
f 39/62/41 13/59/41 35/54/41
f 20/66/42 39/62/42 19/67/42
f 43/68/43 40/69/43 44/70/43
f 44/71/44 42/72/44 41/73/44
f 41/74/45 43/75/45 44/76/45
f 43/75/46 41/74/46 40/77/46
f 41/73/47 42/72/47 40/78/47
f 44/70/48 40/69/48 42/79/48
f 6/5/49 5/80/49 4/6/49
f 7/8/50 6/4/50 3/3/50
f 10/13/7 11/81/7 12/82/7
f 19/11/7 20/83/7 13/84/7
f 10/13/7 12/82/7 19/11/7
f 14/12/7 9/85/7 10/13/7
f 19/11/7 13/84/7 14/12/7
f 10/17/51 16/20/51 17/14/51
f 12/16/52 15/15/52 21/24/52
f 13/21/53 20/29/53 21/24/53
f 30/46/49 31/86/49 32/47/49
f 29/43/54 32/45/54 33/49/54
f 10/55/9 11/57/9 37/52/9
f 12/53/55 19/67/55 39/62/55
f 39/62/56 20/66/56 13/59/56
