# Blender 4.2.1 LTS
# www.blender.org
o Plane.001
v -0.762980 -0.224196 0.836571
v -0.217076 -0.007608 -0.035324
v -0.436241 -0.111405 0.187412
v -0.281245 -0.052606 -0.096851
v -0.391339 -0.052606 -0.096851
v -0.438400 -0.007608 -0.033235
v -0.602042 -0.118708 0.410560
v -0.658844 -0.120331 0.410560
v -0.000000 0.041669 -1.335023
v -0.000000 0.125752 -0.359559
v -0.000000 0.232773 0.030166
v -0.000000 0.122932 0.184050
v -0.000000 -0.001213 -0.035605
v 0.000000 -0.140718 -0.422901
v -0.217042 -0.007992 -0.035022
v -0.050811 0.126621 -0.359879
v -0.044296 0.232773 0.030166
v -0.248664 -0.029565 -0.065728
v -0.000000 0.102576 0.099295
v -0.000000 0.013985 -0.009515
v -0.110914 0.013985 -0.008990
v -0.436571 0.325015 0.396811
v -0.221849 -0.004107 -0.018966
v -0.322811 0.009981 -0.018966
v -0.324148 0.147676 -0.109653
v -0.326665 -0.173129 -0.468745
v 0.762980 -0.224196 0.836571
v 0.217076 -0.007608 -0.035324
v 0.436241 -0.111405 0.187412
v 0.281245 -0.052606 -0.096851
v 0.391339 -0.052606 -0.096851
v 0.438400 -0.007608 -0.033235
v 0.602042 -0.118708 0.410560
v 0.658844 -0.120330 0.410560
v 0.217042 -0.007992 -0.035022
v 0.050811 0.126621 -0.359879
v 0.044296 0.232773 0.030166
v 0.248664 -0.029565 -0.065728
v 0.110914 0.013985 -0.008990
v 0.436571 0.325015 0.396811
v 0.221849 -0.004107 -0.018966
v 0.322811 0.009981 -0.018966
v 0.324148 0.147676 -0.109653
v 0.326665 -0.173129 -0.468745
vn -0.5163 0.8490 -0.1123
vn 0.0040 0.9049 0.4256
vn 0.0037 -0.8121 0.5835
vn 0.0278 -0.9727 -0.2304
vn 0.4682 0.8006 0.3740
vn -0.0023 -0.9702 -0.2424
vn -1.0000 -0.0000 -0.0000
vn 0.7588 -0.4067 -0.5087
vn -0.0097 -0.9645 0.2638
vn -0.0000 -0.8139 -0.5810
vn -0.0176 -0.9962 0.0859
vn -0.0303 0.9404 -0.3387
vn 0.6888 0.7109 0.1422
vn -0.2232 0.8982 -0.3787
vn 0.7338 -0.6725 0.0968
vn 0.7834 -0.6029 0.1510
vn 0.5255 -0.8490 0.0553
vn -0.0191 0.8319 -0.5545
vn -0.0030 0.7755 -0.6314
vn -0.8723 0.3677 -0.3224
vn -0.1281 -0.9182 0.3749
vn 0.8612 0.3761 -0.3420
vn 0.8319 0.5549 -0.0096
vn -0.1125 -0.8066 0.5803
vn -0.7536 -0.6065 0.2534
vn 0.5163 0.8490 -0.1123
vn -0.0040 0.9049 0.4256
vn -0.0037 -0.8121 0.5835
vn -0.0278 -0.9727 -0.2304
vn -0.4682 0.8006 0.3740
vn 0.0023 -0.9702 -0.2424
vn -0.7588 -0.4067 -0.5087
vn 0.0097 -0.9645 0.2638
vn 0.0176 -0.9962 0.0859
vn 0.0303 0.9404 -0.3387
vn -0.6888 0.7109 0.1422
vn 0.2232 0.8982 -0.3787
vn -0.7338 -0.6725 0.0968
vn -0.7834 -0.6029 0.1510
vn -0.5255 -0.8490 0.0553
vn 0.0191 0.8319 -0.5545
vn 0.0030 0.7755 -0.6314
vn 0.8723 0.3677 -0.3224
vn 0.1281 -0.9182 0.3749
vn -0.8612 0.3761 -0.3420
vn -0.8319 0.5549 -0.0096
vn 0.1125 -0.8066 0.5803
vn 0.7536 -0.6065 0.2534
vt 0.966096 0.000000
vt 1.000000 0.172665
vt 0.966096 0.602404
vt 0.516512 -0.000000
vt 0.620470 0.064990
vt 0.539012 0.187970
vt 0.718034 0.006553
vt 0.641145 0.066135
vt 0.620470 0.029104
vt 0.659044 -0.000000
vt 0.835370 0.455506
vt 0.835370 0.738719
vt 0.813016 0.467987
vt 0.516512 0.632969
vt 0.566317 0.354258
vt 0.718034 0.638532
vt 0.212128 0.827243
vt 0.242889 0.585791
vt 0.212128 -0.000000
vt 0.393919 0.521405
vt 0.343914 0.764699
vt 0.337145 0.781673
vt 0.294135 0.855012
vt 0.289156 0.907227
vt 0.192687 0.835344
vt 0.157770 0.918318
vt 0.021027 0.775944
vt 0.190421 0.592399
vt 0.212128 0.835309
vt 0.168498 0.592322
vt 0.212128 0.000000
vt 0.403595 0.742184
vt 0.393919 0.542871
vt 0.516512 0.778265
vt 0.516512 -0.000000
vt 0.421894 0.848749
vt 0.422671 0.803669
vt 0.464569 0.772845
vt -0.000000 0.755716
vt 0.405897 0.754776
vt 0.718034 0.275891
vt 0.813017 0.000000
vt 0.750704 0.604625
vt 0.959444 0.571873
vt 0.928133 0.275525
vt 0.966096 0.281964
vt 0.813016 0.196765
vt 0.906406 0.000000
vt 0.928133 0.167311
vt 0.928133 0.455506
vt 0.966096 -0.000000
vt 0.813017 0.293073
s 0
f 2/1/1 3/2/1 1/3/1
f 2/4/2 6/5/2 3/6/2
f 2/7/3 6/8/3 5/9/3 4/10/3
f 7/11/4 1/12/4 8/13/4
f 1/14/5 3/6/5 6/5/5 7/15/5
f 2/7/6 1/16/6 6/8/6
f 11/17/7 10/18/7 9/19/7 14/20/7 13/21/7 20/22/7 19/23/7 12/24/7
f 17/25/8 12/26/8 15/27/8
f 10/28/9 11/29/9 17/25/9 16/30/9
f 11/29/10 12/26/10 17/25/10
f 9/31/11 10/28/11 16/30/11
f 13/32/12 14/33/12 15/34/12
f 14/33/13 9/35/13 15/34/13
f 12/36/14 19/37/14 21/38/14 15/34/14
f 9/31/15 16/30/15 15/27/15
f 16/30/16 17/25/16 15/27/16
f 9/31/17 15/27/17 18/39/17
f 15/34/18 21/38/18 20/40/18 13/32/18
f 20/40/19 21/38/19 19/37/19
f 25/41/20 26/42/20 22/43/20
f 26/44/21 23/45/21 24/46/21
f 23/47/22 26/48/22 25/49/22
f 25/49/23 22/50/23 23/47/23
f 23/45/24 22/51/24 24/46/24
f 26/42/25 24/52/25 22/43/25
f 28/1/26 27/3/26 29/2/26
f 28/4/27 29/6/27 32/5/27
f 28/7/28 30/10/28 31/9/28 32/8/28
f 33/11/29 34/13/29 27/12/29
f 27/14/30 33/15/30 32/5/30 29/6/30
f 28/7/31 32/8/31 27/16/31
f 37/25/32 35/27/32 12/26/32
f 10/28/33 36/30/33 37/25/33 11/29/33
f 11/29/10 37/25/10 12/26/10
f 9/31/34 36/30/34 10/28/34
f 13/32/35 35/34/35 14/33/35
f 14/33/36 35/34/36 9/35/36
f 12/36/37 35/34/37 39/38/37 19/37/37
f 9/31/38 35/27/38 36/30/38
f 36/30/39 35/27/39 37/25/39
f 9/31/40 38/39/40 35/27/40
f 35/34/41 13/32/41 20/40/41 39/38/41
f 20/40/42 19/37/42 39/38/42
f 43/41/43 40/43/43 44/42/43
f 44/44/44 42/46/44 41/45/44
f 41/47/45 43/49/45 44/48/45
f 43/49/46 41/47/46 40/50/46
f 41/45/47 42/46/47 40/51/47
f 44/42/48 40/43/48 42/52/48
