# Blender 4.2.1 LTS
# www.blender.org
o Cube
v 0.200000 0.200000 -0.200000
v 0.200000 -0.200000 -0.200000
v 0.200000 0.200000 0.200000
v 0.200000 -0.200000 0.200000
v -0.200000 0.200000 -0.200000
v -0.200000 -0.200000 -0.200000
v -0.200000 0.200000 0.200000
v -0.200000 -0.200000 0.200000
v 0.200000 1.204499 0.592213
v -0.200000 1.204499 0.592213
v 0.200000 1.204499 0.192213
v -0.200000 1.204499 0.192213
v 0.200000 1.324924 0.592213
v -0.200000 1.324924 0.592213
v 0.200000 1.324924 0.192213
v -0.200000 1.324924 0.192213
v 0.200000 1.753329 0.314845
v -0.200000 1.753329 0.314845
v 0.200000 1.753329 -0.085155
v -0.200000 1.753329 -0.085155
vn -0.0000 -0.3637 0.9315
vn -0.0000 -0.0000 1.0000
vn -1.0000 -0.0000 -0.0000
vn -0.0000 -1.0000 -0.0000
vn 1.0000 -0.0000 -0.0000
vn -0.0000 -0.0000 -1.0000
vn -0.0000 0.3637 -0.9315
vn -0.0000 1.0000 -0.0000
vn -0.0000 0.5435 0.8394
vn -0.0000 -0.5435 -0.8394
vt 0.516899 0.000352
vt 0.696581 0.000352
vt 0.696581 0.484756
vt 0.516899 0.484756
vt 0.999648 0.485460
vt 0.999648 0.665142
vt 0.819966 0.665142
vt 0.819966 0.485460
vt 0.336512 0.992755
vt 0.336512 0.813073
vt 0.516195 0.813073
vt 0.516195 0.992755
vt 0.876968 0.360421
vt 0.697285 0.360421
vt 0.697285 0.180738
vt 0.876968 0.180738
vt 0.819262 0.715419
vt 0.819262 0.895102
vt 0.639579 0.895102
vt 0.639579 0.715419
vt 0.180034 0.960455
vt 0.000352 0.960455
vt 0.000352 0.780772
vt 0.180034 0.780772
vt 0.281009 0.550813
vt 0.281009 0.730495
vt 0.226913 0.730495
vt 0.226913 0.550813
vt 0.000352 0.000352
vt 0.167728 0.065705
vt 0.167728 0.550109
vt 0.000352 0.484756
vt 0.168432 0.065705
vt 0.335808 0.000352
vt 0.335808 0.484756
vt 0.168432 0.550109
vt 0.336512 0.000352
vt 0.516195 0.000352
vt 0.516195 0.484756
vt 0.336512 0.484756
vt 0.638875 0.714715
vt 0.488046 0.812369
vt 0.488046 0.583113
vt 0.638875 0.485460
vt 0.819965 0.845529
vt 0.819965 0.665846
vt 0.874061 0.665846
vt 0.874061 0.845529
vt 0.281713 0.730495
vt 0.281713 0.550813
vt 0.335808 0.550813
vt 0.335808 0.730495
vt 0.226913 0.910882
vt 0.226913 0.731199
vt 0.281009 0.731199
vt 0.281009 0.910882
vt 0.697285 0.180034
vt 0.697285 0.000352
vt 0.876967 0.000352
vt 0.876967 0.180035
vt 0.639579 0.485460
vt 0.819262 0.485460
vt 0.819262 0.714715
vt 0.639579 0.714715
vt 0.000352 0.550813
vt 0.180035 0.550813
vt 0.180035 0.780068
vt 0.000352 0.780068
vt 0.336512 0.485460
vt 0.487342 0.583113
vt 0.487342 0.812369
vt 0.336512 0.714715
s 0
f 7/1/1 3/2/1 9/3/1 10/4/1
f 4/5/2 3/6/2 7/7/2 8/8/2
f 8/9/3 7/10/3 5/11/3 6/12/3
f 6/13/4 2/14/4 4/15/4 8/16/4
f 2/17/5 1/18/5 3/19/5 4/20/5
f 6/21/6 5/22/6 1/23/6 2/24/6
f 11/25/6 12/26/6 16/27/6 15/28/6
f 5/29/3 7/30/3 10/31/3 12/32/3
f 3/33/5 1/34/5 11/35/5 9/36/5
f 1/37/7 5/38/7 12/39/7 11/40/7
f 16/41/3 14/42/3 18/43/3 20/44/3
f 9/45/5 11/46/5 15/47/5 13/48/5
f 12/49/3 10/50/3 14/51/3 16/52/3
f 10/53/2 9/54/2 13/55/2 14/56/2
f 19/57/8 20/58/8 18/59/8 17/60/8
f 14/61/9 13/62/9 17/63/9 18/64/9
f 15/65/10 16/66/10 20/67/10 19/68/10
f 13/69/5 15/70/5 19/71/5 17/72/5
