# Blender 4.2.1 LTS
# www.blender.org
o Plane.001
v -0.834873 -0.024036 0.623867
v -0.237530 0.212960 -0.330183
v -0.477346 0.099383 -0.086459
v -0.307745 0.163722 -0.397508
v -0.428213 0.163722 -0.397508
v -0.479708 0.212960 -0.327897
v -0.658770 0.091392 0.157714
v -0.720924 0.089616 0.157714
v -0.000000 0.266880 -1.752347
v -0.000000 0.358886 -0.684969
v -0.000000 0.475991 -0.258522
v -0.000000 0.355801 -0.090139
v -0.000000 0.219958 -0.330490
v 0.000000 0.067307 -0.754279
v -0.237493 0.212540 -0.329853
v -0.055599 0.359837 -0.685320
v -0.048470 0.475991 -0.258522
v -0.272095 0.188935 -0.363452
v -0.000000 0.333527 -0.182880
v -0.000000 0.236587 -0.301942
v -0.121365 0.236587 -0.301368
v -0.477708 0.576925 0.142670
v -0.242753 0.216791 -0.312284
v -0.353228 0.232206 -0.312284
v -0.354691 0.382875 -0.411516
v -0.357445 0.031843 -0.804444
v 0.834873 -0.024036 0.623867
v 0.237530 0.212960 -0.330183
v 0.477346 0.099383 -0.086459
v 0.307745 0.163722 -0.397508
v 0.428213 0.163722 -0.397508
v 0.479708 0.212960 -0.327897
v 0.658770 0.091392 0.157714
v 0.720924 0.089616 0.157714
v 0.237493 0.212540 -0.329853
v 0.055599 0.359837 -0.685320
v 0.048470 0.475991 -0.258522
v 0.272095 0.188935 -0.363452
v 0.121365 0.236587 -0.301368
v 0.477708 0.576925 0.142670
v 0.242753 0.216791 -0.312284
v 0.353228 0.232206 -0.312284
v 0.354691 0.382876 -0.411516
v 0.357445 0.031843 -0.804444
vn 0.5163 -0.8490 0.1123
vn -0.0040 -0.9049 -0.4256
vn 0.0055 -0.8099 0.5865
vn -0.0278 0.9727 0.2304
vn -0.4700 -0.7989 -0.3754
vn 0.0023 0.9702 0.2424
vn -0.7588 0.4067 0.5087
vn -0.0000 0.9643 -0.2648
vn -0.0000 0.8139 0.5810
vn 0.0176 0.9962 -0.0859
vn 0.0303 -0.9404 0.3387
vn -0.6888 -0.7109 -0.1422
vn 0.4810 -0.8525 0.2047
vn -0.7338 0.6725 -0.0968
vn -0.7834 0.6029 -0.1510
vn 0.5255 -0.8490 0.0553
vn 0.0270 -0.8154 0.5782
vn 0.0030 -0.7755 0.6314
vn -0.8723 0.3677 -0.3224
vn -0.1281 -0.9182 0.3749
vn 0.8612 0.3761 -0.3420
vn 0.8319 0.5549 -0.0096
vn -0.1125 -0.8066 0.5803
vn -0.7536 -0.6065 0.2534
vn -0.5163 -0.8490 0.1123
vn 0.0040 -0.9049 -0.4256
vn -0.0055 -0.8099 0.5865
vn 0.0278 0.9727 0.2304
vn 0.4700 -0.7989 -0.3754
vn -0.0023 0.9702 0.2424
vn 0.7588 0.4067 0.5087
vn -0.0182 0.9647 -0.2628
vn -0.0176 0.9962 -0.0859
vn -0.0303 -0.9404 0.3387
vn 0.6888 -0.7109 -0.1422
vn -0.0708 -0.8855 0.4591
vn 0.7338 0.6725 -0.0968
vn 0.7834 0.6029 -0.1510
vn -0.5255 -0.8490 0.0553
vn -0.0270 -0.8154 0.5782
vn -0.0030 -0.7755 0.6314
vn 0.8723 0.3677 -0.3224
vn 0.1281 -0.9182 0.3749
vn -0.8612 0.3761 -0.3420
vn -0.8319 0.5549 -0.0096
vn 0.1125 -0.8066 0.5803
vn 0.7536 -0.6065 0.2534
vn -0.0000 -0.8164 0.5775
vn -0.4664 -0.8022 -0.3728
vn 0.0182 0.9647 -0.2628
vn 0.0708 -0.8855 0.4591
vn 0.0024 -0.8641 0.5033
vn 0.4664 -0.8022 -0.3728
vn -0.4810 -0.8525 0.2047
vn -0.0024 -0.8641 0.5033
vt 0.638264 0.510815
vt 0.638264 0.999274
vt 0.607256 0.657135
vt 0.749832 0.560012
vt 0.737597 0.678734
vt 0.685140 0.585770
vt 0.706607 0.739542
vt 0.817440 0.663462
vt 0.907903 0.738540
vt 0.669583 0.493442
vt 0.690501 0.502014
vt 0.669583 0.714804
vt 0.764931 0.687063
vt 0.783667 0.566870
vt 0.795902 0.892199
vt 0.497313 0.527738
vt 0.553575 0.551052
vt 0.556828 0.859341
vt 0.282939 0.887272
vt 0.454578 0.557529
vt 0.458294 0.955222
vt 0.172562 0.978552
vt 0.318540 0.958925
vt 0.318703 0.977476
vt 0.236483 0.695302
vt 0.199665 0.695688
vt 0.235219 0.508482
vt 0.049492 0.525183
vt 0.444299 0.501957
vt 0.444715 0.523235
vt 0.046700 0.548597
vt 0.190883 0.586551
vt 0.044799 0.954106
vt 0.235145 0.814023
vt 0.188503 0.925935
vt 0.188503 0.568205
vt 0.463946 0.512061
vt 0.400960 0.866937
vt 0.389804 0.613793
vt 0.040170 0.937916
vt 0.400746 0.572369
vt 0.344413 0.709769
vt 0.418627 0.907095
vt 0.233350 0.679070
vt 0.416750 0.574632
vt 0.946139 0.560459
vt 0.528526 0.964984
vt 0.525877 0.944564
vt 0.223533 0.505942
vt 0.125876 0.544197
vt 0.002023 0.502748
vt 0.157019 0.241607
vt 0.411011 0.243258
vt 0.083616 0.399792
vt 0.042547 0.776131
vt -0.000468 0.990822
vt -0.000468 0.526842
vt 0.591812 0.937511
vt 0.557479 0.762873
vt 0.585477 0.753324
vt 0.497189 0.728579
vt 0.570897 0.530291
vt 0.570897 0.738937
vt 0.529369 0.974992
vt 0.637478 0.564544
vt 0.462990 0.989672
vt 0.427365 0.763618
vt 0.462990 0.521797
vt 0.635525 0.996380
vt 0.604517 0.850059
vt 0.635525 0.507920
vt 0.758813 0.970328
vt 0.694122 0.944570
vt 0.746578 0.851606
vt 0.817468 0.822899
vt 0.709174 0.742736
vt 0.910315 0.751239
vt 0.690501 0.714804
vt 0.690501 0.493442
vt 0.711419 0.706232
vt 0.849482 0.773477
vt 0.830746 0.653283
vt 0.861717 0.448148
vt 0.618496 0.530361
vt 0.559846 0.862141
vt 0.562295 0.553843
vt 0.182133 0.889383
vt 0.003223 0.960813
vt 0.003354 0.553594
vt 0.318866 0.996027
vt 0.172476 0.999834
vt 0.273301 0.694915
vt 0.444584 0.544517
vt 0.420249 0.552737
vt 0.418753 0.951644
vt 0.278104 0.588699
vt 0.241095 0.814941
vt 0.288797 0.565023
vt 0.288402 0.928805
vt 0.002041 0.514503
vt 0.063156 0.872539
vt 0.006855 0.996559
vt 0.044272 0.934534
vt 0.273080 0.625074
vt 0.403461 0.573338
vt 0.049752 0.896184
vt 0.051081 0.580143
vt 0.225563 0.679132
vt 0.517849 0.952341
vt 0.916757 0.542949
vt 0.935462 0.547816
vt 0.339436 0.546160
vt 0.241704 0.506129
vt 0.464623 0.506410
vt 0.158358 0.237515
vt 0.085293 0.079151
vt 0.412353 0.236486
vt 0.046267 0.742601
vt 0.002550 0.995956
vt 0.002550 0.524408
vt 0.582704 0.556851
vt 0.532242 0.733062
vt 0.507490 0.716103
vt 0.570897 0.776705
vt 0.644605 0.766347
vt 0.644605 0.974992
vt 0.603078 0.530291
vt 0.537039 0.929818
vt 0.460577 0.536913
vt 0.460577 0.993152
vt 0.425837 0.757345
vt 0.717301 0.662681
vt 0.731211 0.473906
vt 0.172101 0.957275
vt 0.456028 0.990442
vt 0.236397 0.545562
vt 0.717364 0.819948
vt 0.797026 0.866440
vt 0.076070 0.617566
vt 0.228216 0.545790
s 0
f 2/1/1 1/2/1 3/3/1
f 2/4/2 3/5/2 6/6/2
f 6/7/3 4/8/3 2/9/3
f 7/10/4 8/11/4 1/12/4
f 7/13/5 3/14/5 1/15/5
f 2/16/6 6/17/6 1/18/6
f 17/19/7 15/20/7 12/21/7
f 10/22/8 17/23/8 11/24/8
f 11/25/9 17/26/9 12/27/9
f 9/28/10 16/29/10 10/30/10
f 13/31/11 15/32/11 14/33/11
f 14/34/12 15/35/12 9/36/12
f 12/37/13 21/38/13 19/39/13
f 9/40/14 15/41/14 16/42/14
f 16/43/15 15/44/15 17/45/15
f 9/46/16 15/47/16 18/48/16
f 13/49/17 21/50/17 15/51/17
f 20/52/18 19/53/18 21/54/18
f 25/55/19 26/56/19 22/57/19
f 26/58/20 23/59/20 24/60/20
f 23/61/21 26/62/21 25/63/21
f 25/63/22 22/64/22 23/61/22
f 23/59/23 22/65/23 24/60/23
f 26/66/24 24/67/24 22/68/24
f 28/69/25 29/70/25 27/71/25
f 28/72/26 32/73/26 29/74/26
f 30/75/27 32/76/27 28/77/27
f 33/78/28 27/79/28 34/80/28
f 29/81/29 33/82/29 27/83/29
f 28/84/30 27/85/30 32/86/30
f 37/87/31 12/88/31 35/89/31
f 10/22/32 37/90/32 36/91/32
f 11/25/9 12/27/9 37/92/9
f 9/28/33 10/30/33 36/93/33
f 13/94/34 14/95/34 35/96/34
f 14/97/35 9/98/35 35/99/35
f 12/100/36 39/101/36 35/102/36
f 9/103/37 36/104/37 35/105/37
f 36/106/38 37/107/38 35/108/38
f 9/109/39 38/110/39 35/111/39
f 39/112/40 13/113/40 35/114/40
f 20/115/41 39/116/41 19/117/41
f 43/118/42 40/119/42 44/120/42
f 44/121/43 42/122/43 41/123/43
f 41/124/44 43/125/44 44/126/44
f 43/125/45 41/124/45 40/127/45
f 41/123/46 42/122/46 40/128/46
f 44/129/47 40/130/47 42/131/47
f 6/7/48 5/132/48 4/8/48
f 7/13/49 6/133/49 3/14/49
f 10/22/50 16/134/50 17/23/50
f 12/37/51 15/135/51 21/38/51
f 13/49/52 20/136/52 21/50/52
f 30/75/48 31/137/48 32/76/48
f 29/81/53 32/138/53 33/82/53
f 10/22/8 11/24/8 37/90/8
f 12/100/54 19/139/54 39/101/54
f 39/112/55 20/140/55 13/113/55
