# Blender 4.2.1 LTS
# www.blender.org
o Cube.001
v 1.705888 0.004135 0.068159
v 1.705888 3.273283 0.068159
v 1.569569 0.004135 0.068159
v 1.569569 3.273283 0.068159
v 1.705888 0.004135 -0.068159
v 1.705888 3.273283 -0.068159
v 1.569569 0.004135 -0.068159
v 1.569569 3.273283 -0.068159
v 1.227655 3.927585 0.068159
v 1.175977 3.796003 0.068159
v 1.175977 3.796003 -0.068159
v 1.227655 3.927585 -0.068159
v 1.046897 3.927331 0.068159
v 1.046107 3.796765 0.068159
v 1.046107 3.796765 -0.068159
v 1.046897 3.927331 -0.068159
v 1.069008 0.785596 0.129546
v 1.069008 4.451809 0.129546
v 0.809916 0.785596 0.129546
v 0.809916 4.451809 0.129546
v 1.069008 0.785596 -0.129546
v 1.069008 4.451809 -0.129546
v 0.809916 0.785596 -0.129546
v 0.809916 4.451809 -0.129546
v 1.867278 0.005129 0.153178
v 1.867278 3.135562 0.153178
v 1.311461 0.005129 0.153178
v 1.311461 3.135562 0.153178
v 1.867278 0.005129 0.090358
v 1.867278 3.135562 0.090358
v 1.311461 0.005129 0.090358
v 1.311461 3.135562 0.090358
v 0.939462 0.785596 0.129546
v 1.069008 4.323610 0.129546
v 0.809916 4.323611 0.129546
v 0.809916 4.323234 -0.129546
v 0.939462 0.785596 -0.129546
v 1.069008 4.323234 -0.129546
v 1.069008 4.451809 -0.129546
v 0.809916 4.451809 -0.129546
v 0.809916 4.323611 -0.129546
v 1.069008 4.323611 -0.129546
v 1.069008 4.451809 -0.258056
v 0.809916 4.451809 -0.258056
v 0.809916 4.323611 -0.258056
v 1.069008 4.323611 -0.258056
v 1.069008 4.323610 0.259878
v 1.069008 4.451809 0.259878
v 0.809916 4.451809 0.259878
v 0.809916 4.323611 0.259878
v 0.809916 4.451809 -0.129546
v 0.809916 4.323611 -0.129546
v 0.809916 4.451809 -0.258056
v 0.809916 4.323611 -0.258056
v 1.065745 3.925314 0.295153
v 1.065745 4.450012 0.295153
v 0.394946 3.925314 0.295153
v 0.394946 4.450012 0.295153
v 1.065745 3.925314 0.259334
v 1.065745 4.450012 0.259334
v 0.394946 3.925314 0.259334
v 0.394946 4.450012 0.259334
v -1.705888 0.004135 0.068159
v -1.705888 3.273283 0.068159
v -1.569569 0.004135 0.068159
v -1.569569 3.273283 0.068159
v -1.705888 0.004135 -0.068159
v -1.705888 3.273283 -0.068159
v -1.569569 0.004135 -0.068159
v -1.569569 3.273283 -0.068159
v -1.227655 3.927585 0.068159
v -1.175977 3.796003 0.068159
v -1.175977 3.796003 -0.068159
v -1.227655 3.927585 -0.068159
v -1.046897 3.927331 0.068159
v -1.046107 3.796765 0.068159
v -1.046107 3.796765 -0.068159
v -1.046897 3.927331 -0.068159
v -1.069008 0.785596 0.129546
v -1.069008 4.451809 0.129546
v -0.809916 0.785596 0.129546
v -0.809916 4.451809 0.129546
v -1.069008 0.785596 -0.129546
v -1.069008 4.451809 -0.129546
v -0.809916 0.785596 -0.129546
v -0.809916 4.451809 -0.129546
v -1.867278 0.005129 0.153178
v -1.867278 3.135562 0.153178
v -1.311461 0.005129 0.153178
v -1.311461 3.135562 0.153178
v -1.867278 0.005129 0.090358
v -1.867278 3.135562 0.090358
v -1.311461 0.005129 0.090358
v -1.311461 3.135562 0.090358
v -0.939462 0.785596 0.129546
v -1.069008 4.323610 0.129546
v -0.809916 4.323611 0.129546
v -0.809916 4.323234 -0.129546
v -0.939462 0.785596 -0.129546
v -1.069008 4.323234 -0.129546
v -1.069008 4.451809 -0.129546
v -0.809916 4.451809 -0.129546
v -0.809916 4.323611 -0.129546
v -1.069008 4.323611 -0.129546
v -1.069008 4.451809 -0.258056
v -0.809916 4.451809 -0.258056
v -0.809916 4.323611 -0.258056
v -1.069008 4.323611 -0.258056
v -1.069008 4.323610 0.259878
v -1.069008 4.451809 0.259878
v -0.809916 4.451809 0.259878
v -0.809916 4.323611 0.259878
v -0.809916 4.451809 -0.129546
v -0.809916 4.323611 -0.129546
v -0.809916 4.451809 -0.258056
v -0.809916 4.323611 -0.258056
v -1.065745 3.925314 0.295153
v -1.065745 4.450012 0.295153
v -0.394946 3.925314 0.295153
v -0.394946 4.450012 0.295153
v -1.065745 3.925314 0.259334
v -1.065745 4.450012 0.259334
v -0.394946 3.925314 0.259334
v -0.394946 4.450012 0.259334
v -1.307644 0.783377 -1.307644
v -1.307644 0.004789 -1.307644
v 1.307644 0.783377 -1.307644
v 1.307644 0.004789 -1.307644
v -1.307644 0.783377 1.307644
v -1.307644 0.004789 1.307644
v 1.307644 0.783377 1.307644
v 1.307644 0.004789 1.307644
vn -0.0000 -0.0000 1.0000
vn -1.0000 -0.0000 -0.0000
vn -0.0000 -0.0000 -1.0000
vn 1.0000 -0.0000 -0.0000
vn -0.0000 -1.0000 -0.0000
vn 0.8073 0.5901 -0.0000
vn -0.7989 -0.6015 -0.0000
vn -1.0000 0.0061 -0.0000
vn -0.0014 1.0000 -0.0000
vn -0.0059 -1.0000 -0.0000
vn -0.0000 1.0000 -0.0000
vn -0.0000 -1.0000 -0.0029
vn -0.8073 0.5901 -0.0000
vn 0.7989 -0.6015 -0.0000
vn 1.0000 0.0061 -0.0000
vn 0.0014 1.0000 -0.0000
vn 0.0059 -1.0000 -0.0000
vt 0.470046 0.091788
vt 0.542433 0.492247
vt 0.525638 0.494565
vt 0.592427 0.559556
vt 0.609381 0.966151
vt 0.592427 0.966151
vt 0.380864 0.089470
vt 0.342068 0.494565
vt 0.325272 0.492247
vt 0.958278 0.081403
vt 0.975232 0.487998
vt 0.958278 0.487998
vt 0.065162 0.750929
vt 0.082116 0.733974
vt 0.082116 0.750929
vt 0.349865 0.003042
vt 0.397659 0.091788
vt 0.341260 0.018375
vt 0.327590 0.000000
vt 0.486841 0.089470
vt 0.517841 0.003042
vt 0.526445 0.018375
vt 0.975232 0.000000
vt 0.975232 0.081403
vt 0.609381 0.494565
vt 0.609381 0.559556
vt 0.115309 0.750929
vt 0.099071 0.733974
vt 0.115309 0.733974
vt 0.540115 0.000000
vt 0.542433 0.016073
vt 0.727972 0.714993
vt 0.711017 0.737475
vt 0.711017 0.714993
vt 0.147701 0.750929
vt 0.131548 0.733974
vt 0.147701 0.733974
vt 0.463530 0.510510
vt 0.495754 0.494565
vt 0.495754 0.510556
vt 0.877620 0.000000
vt 0.909844 0.015944
vt 0.877620 0.015991
vt 0.711017 0.666657
vt 0.743241 0.650545
vt 0.743241 0.666657
vt 0.808491 0.000000
vt 0.877620 0.389343
vt 0.808491 0.389343
vt 0.975232 0.471586
vt 0.983046 0.860929
vt 0.975232 0.860929
vt 0.808491 0.389343
vt 0.877620 0.778685
vt 0.808491 0.778685
vt 0.983046 0.471586
vt 0.990859 0.860929
vt 0.983046 0.860929
vt 0.743241 0.719674
vt 0.751055 0.650545
vt 0.751055 0.719674
vt 0.758868 0.719674
vt 0.766681 0.650545
vt 0.766681 0.719674
vt 0.711017 0.682769
vt 0.743241 0.682769
vt 0.909844 0.455979
vt 0.877620 0.455979
vt 0.325272 0.494565
vt 0.463530 0.950544
vt 0.495754 0.950544
vt 0.631030 0.650545
vt 0.647239 0.682769
vt 0.631030 0.682769
vt 0.000000 0.650545
vt 0.015983 0.682769
vt 0.000000 0.682769
vt 0.179798 0.733974
vt 0.163853 0.749957
vt 0.163853 0.733974
vt 0.909844 0.000000
vt 0.926054 0.015944
vt 0.309241 0.682769
vt 0.325224 0.884233
vt 0.309241 0.884233
vt 0.695073 0.852009
vt 0.679128 0.650545
vt 0.695073 0.650545
vt 0.048207 0.650545
vt 0.015983 0.650545
vt 0.178724 0.733974
vt 0.243983 0.650545
vt 0.243983 0.733974
vt 0.727971 0.714993
vt 0.732426 0.780252
vt 0.727971 0.780252
vt 0.048207 0.733974
vt 0.113466 0.650545
vt 0.113466 0.733974
vt 0.732426 0.714993
vt 0.736881 0.780252
vt 0.732426 0.780252
vt 0.609381 0.577995
vt 0.613836 0.494565
vt 0.613836 0.577995
vt 0.609381 0.744854
vt 0.613836 0.661424
vt 0.613836 0.744854
vt 0.679128 0.650545
vt 0.663184 0.682769
vt 0.663184 0.650545
vt 0.325224 0.650545
vt 0.325224 0.682769
vt 0.663184 0.884233
vt 0.647239 0.916457
vt 0.647239 0.884233
vt 0.631030 0.682769
vt 0.614820 0.650545
vt 0.631030 0.650545
vt 0.695073 0.852009
vt 0.711017 0.650545
vt 0.711017 0.852009
vt 0.926054 0.000000
vt 0.958278 0.439988
vt 0.942166 0.439988
vt 0.527979 0.494565
vt 0.560203 0.934600
vt 0.544091 0.934600
vt 0.397659 0.492247
vt 0.470046 0.091788
vt 0.414454 0.494565
vt 0.992187 0.064991
vt 0.992187 0.471586
vt 0.598025 0.494565
vt 0.559228 0.089470
vt 0.614820 0.492247
vt 0.958278 0.975997
vt 0.975232 0.569402
vt 0.975232 0.975997
vt 0.099071 0.750929
vt 0.082116 0.733974
vt 0.590227 0.003042
vt 0.542433 0.091788
vt 0.612502 0.000000
vt 0.598832 0.018375
vt 0.453251 0.089470
vt 0.422251 0.003043
vt 0.958278 0.487998
vt 0.958278 0.569402
vt 0.975232 -0.000000
vt 0.975232 0.064991
vt 0.131548 0.750929
vt 0.413647 0.018375
vt 0.399977 0.000000
vt 0.048207 0.733974
vt 0.065162 0.756456
vt 0.048207 0.756456
vt 0.163853 0.733974
vt 0.527979 0.510510
vt 0.893830 0.471924
vt 0.926054 0.455979
vt 0.926054 0.471970
vt 0.743241 0.714993
vt 0.711017 0.698881
vt 0.743241 0.698881
vt 0.325272 0.883908
vt 0.394401 0.494565
vt 0.394401 0.883908
vt 0.990859 0.860929
vt 0.998672 0.471586
vt 0.998672 0.860929
vt 0.394401 0.883908
vt 0.463530 0.494565
vt 0.463530 0.883908
vt 0.992187 0.389343
vt 1.000000 0.000000
vt 1.000000 0.389343
vt 0.758868 0.719674
vt 0.751055 0.650545
vt 0.758868 0.650545
vt 0.774494 0.719674
vt 0.766681 0.650545
vt 0.774494 0.650545
vt 0.711017 0.682769
vt 0.743241 0.682769
vt 0.893830 0.911959
vt 0.926054 0.911959
vt 0.527979 0.950544
vt 0.647239 0.884233
vt 0.631030 0.916457
vt 0.631030 0.884233
vt 0.015983 0.884233
vt 0.000000 0.916457
vt 0.000000 0.884233
vt 0.179798 0.733974
vt 0.195742 0.749957
vt 0.179798 0.749957
vt 0.877620 0.471924
vt 0.893830 0.455979
vt 0.048207 0.916457
vt 0.015983 0.916457
vt 0.178724 0.733974
vt 0.113466 0.650545
vt 0.178724 0.650545
vt 0.741336 0.714993
vt 0.741336 0.780252
vt 0.309241 0.733974
vt 0.309241 0.650545
vt 0.778949 0.715803
vt 0.783404 0.650545
vt 0.783404 0.715803
vt 0.613836 0.661424
vt 0.778949 0.733974
vt 0.774494 0.650545
vt 0.778949 0.650545
vt 0.663184 0.884233
vt 0.679128 0.916457
vt 0.663184 0.916457
vt 0.679128 0.682769
vt 0.647239 0.650545
vt 0.647239 0.682769
vt 0.614820 0.916457
vt 0.631030 0.884233
vt 0.325224 0.916457
vt 0.309241 0.916457
vt 0.942166 0.879976
vt 0.926054 0.439988
vt 0.958278 0.439988
vt 0.576315 0.934600
vt 0.560203 0.494565
vt 0.592427 0.494565
vt 0.325272 0.325272
vt 0.000000 0.000000
vt 0.325272 0.000000
vt 0.711655 0.325272
vt 0.808491 0.000000
vt 0.808491 0.325272
vt 0.614820 0.325272
vt 0.711655 0.000000
vt 0.000000 0.650545
vt 0.325272 0.325272
vt 0.325272 0.650545
vt 0.614820 0.650545
vt 0.711655 0.325272
vt 0.711655 0.650545
vt 0.808491 0.325272
vt 0.808491 0.650545
vt 0.614820 0.682769
vt 0.065162 0.733974
vt 0.325272 0.016073
vt 0.958278 0.000000
vt 0.592427 0.494565
vt 0.099071 0.750929
vt 0.727972 0.737475
vt 0.131548 0.750929
vt 0.463530 0.494565
vt 0.711017 0.650545
vt 0.877620 0.000000
vt 0.983046 0.471586
vt 0.877620 0.389343
vt 0.990859 0.471586
vt 0.743241 0.650545
vt 0.758868 0.650545
vt 0.647239 0.650545
vt 0.179798 0.749957
vt 0.926054 0.000000
vt 0.679128 0.852009
vt 0.048207 0.682769
vt 0.178724 0.650545
vt 0.732426 0.714993
vt 0.048207 0.650545
vt 0.736881 0.714993
vt 0.609381 0.494565
vt 0.609381 0.661424
vt 0.309241 0.650545
vt 0.926054 0.439988
vt 0.958278 0.000000
vt 0.527979 0.934600
vt 0.560203 0.494565
vt 0.082116 0.750929
vt 0.614820 0.016073
vt 0.975232 0.487998
vt 0.992187 -0.000000
vt 0.397659 0.016073
vt 0.065162 0.733974
vt 0.163853 0.750929
vt 0.711017 0.714993
vt 0.990859 0.471586
vt 0.394401 0.494565
vt 0.992187 0.000000
vt 0.751055 0.719674
vt 0.766681 0.719674
vt 0.647239 0.916457
vt 0.195742 0.733974
vt 0.877620 0.455979
vt 0.048207 0.884233
vt 0.113466 0.733974
vt 0.609381 0.661424
vt 0.774494 0.733974
vt 0.679128 0.884233
vt 0.614820 0.884233
vt 0.958278 0.879976
vt 0.926054 0.879976
vt 0.592427 0.934600
vt 0.560203 0.934600
vt 0.000000 0.325272
vt 0.711655 0.000000
vt 0.614820 0.000000
vt 0.000000 0.325272
vt 0.614820 0.325272
s 0
f 2/1/1 3/2/1 1/3/1
f 4/4/2 7/5/2 3/6/2
f 8/7/3 5/8/3 7/9/3
f 6/10/4 1/11/4 5/12/4
f 7/13/5 1/14/5 3/15/5
f 8/7/3 12/16/3 6/17/3
f 11/18/3 16/19/3 12/16/3
f 4/20/1 9/21/1 10/22/1
f 6/10/6 9/23/6 2/24/6
f 4/4/7 11/25/7 8/26/7
f 14/27/8 16/28/8 15/29/8
f 10/22/1 13/30/1 14/31/1
f 12/32/9 13/33/9 9/34/9
f 10/35/10 15/36/10 11/37/10
f 35/38/2 24/39/2 36/40/2
f 22/41/4 34/42/4 38/43/4
f 37/44/5 17/45/5 33/46/5
f 26/47/1 27/48/1 25/49/1
f 28/50/2 31/51/2 27/52/2
f 32/53/3 29/54/3 31/55/3
f 30/56/4 25/57/4 29/58/4
f 31/59/5 25/60/5 27/61/5
f 28/62/11 30/63/11 32/64/11
f 23/65/5 33/46/5 19/66/5
f 38/43/4 17/67/4 21/68/4
f 36/69/11 40/69/11 41/69/11
f 19/70/2 36/40/2 23/71/2
f 22/69/11 42/69/11 39/69/11
f 48/72/11 20/73/11 49/74/11
f 43/75/5 51/76/5 53/77/5
f 42/78/4 43/79/4 39/80/4
f 41/69/11 51/69/11 52/69/11
f 18/81/4 47/82/4 34/42/4
f 54/83/12 98/84/12 116/85/12
f 97/86/3 20/87/3 35/88/3
f 18/89/5 51/76/5 39/90/5
f 56/91/1 57/92/1 55/93/1
f 58/94/2 61/95/2 57/96/2
f 62/97/3 59/98/3 61/99/3
f 60/100/4 55/101/4 59/102/4
f 61/103/5 55/104/5 57/105/5
f 58/106/11 60/107/11 62/108/11
f 46/109/3 53/110/3 43/111/3
f 54/83/12 38/112/12 36/113/12
f 50/114/1 48/115/1 49/116/1
f 50/117/5 34/118/5 47/119/5
f 51/120/1 114/121/1 52/122/1
f 36/123/3 21/124/3 37/125/3
f 34/126/1 19/127/1 33/128/1
f 65/129/1 64/130/1 63/131/1
f 69/50/4 66/132/4 65/133/4
f 67/134/3 70/135/3 69/136/3
f 63/137/2 68/138/2 67/139/2
f 63/140/5 69/141/5 65/28/5
f 74/142/3 70/135/3 68/143/3
f 78/144/3 73/145/3 74/142/3
f 66/146/1 71/147/1 64/130/1
f 71/148/13 68/138/13 64/149/13
f 73/150/14 66/132/14 70/151/14
f 78/27/15 76/36/15 77/152/15
f 72/153/1 75/154/1 71/147/1
f 75/155/16 74/156/16 71/157/16
f 77/158/17 72/35/17 73/37/17
f 97/159/4 86/39/4 82/126/4
f 96/160/2 84/161/2 100/162/2
f 79/163/5 99/164/5 95/165/5
f 89/166/1 88/167/1 87/168/1
f 93/169/4 90/170/4 89/171/4
f 91/172/3 94/173/3 93/174/3
f 87/175/2 92/176/2 91/177/2
f 87/178/5 93/179/5 89/180/5
f 92/181/11 90/182/11 94/183/11
f 95/165/5 85/184/5 81/185/5
f 79/186/2 100/162/2 83/187/2
f 98/69/11 102/69/11 86/69/11
f 81/188/4 98/40/4 97/159/4
f 84/69/4 104/69/4 100/69/4
f 82/189/11 110/190/11 111/191/11
f 113/192/5 105/193/5 115/194/5
f 105/195/2 104/196/2 101/197/2
f 103/69/11 113/69/11 102/69/11
f 109/198/2 80/199/2 96/160/2
f 113/192/5 53/77/5 51/76/5
f 82/189/11 49/74/11 20/73/11
f 113/192/5 80/200/5 101/201/5
f 119/202/1 118/203/1 117/204/1
f 123/101/4 120/205/4 119/206/4
f 121/207/3 124/92/3 123/208/3
f 117/209/2 122/210/2 121/211/2
f 117/212/5 123/103/5 119/105/5
f 122/213/11 120/214/11 124/215/11
f 115/216/3 108/217/3 105/218/3
f 54/219/3 115/216/3 53/110/3
f 110/220/1 112/110/1 111/221/1
f 96/222/5 112/223/5 109/190/5
f 116/85/12 100/224/12 108/225/12
f 99/226/3 100/227/3 98/228/3
f 95/229/1 97/230/1 96/231/1
f 129/232/11 127/233/11 125/234/11
f 127/235/4 132/236/4 128/237/4
f 131/238/1 130/239/1 132/235/1
f 126/240/5 132/241/5 130/242/5
f 125/243/3 128/244/3 126/245/3
f 129/245/2 126/246/2 130/247/2
f 112/110/1 49/116/1 111/221/1
f 112/223/5 35/248/5 50/117/5
f 2/1/1 4/20/1 3/2/1
f 4/4/2 8/26/2 7/5/2
f 8/7/3 6/17/3 5/8/3
f 6/10/4 2/24/4 1/11/4
f 7/13/5 5/249/5 1/14/5
f 8/7/3 11/18/3 12/16/3
f 11/18/3 15/250/3 16/19/3
f 4/20/1 2/1/1 9/21/1
f 6/10/6 12/251/6 9/23/6
f 4/4/7 10/252/7 11/25/7
f 14/27/8 13/253/8 16/28/8
f 10/22/1 9/21/1 13/30/1
f 12/32/9 16/254/9 13/33/9
f 10/35/10 14/255/10 15/36/10
f 35/38/2 20/256/2 24/39/2
f 22/41/4 18/81/4 34/42/4
f 37/44/5 21/257/5 17/45/5
f 26/47/1 28/258/1 27/48/1
f 28/50/2 32/259/2 31/51/2
f 32/53/3 30/260/3 29/54/3
f 30/56/4 26/261/4 25/57/4
f 31/59/5 29/262/5 25/60/5
f 28/62/11 26/263/11 30/63/11
f 23/65/5 37/44/5 33/46/5
f 38/43/4 34/42/4 17/67/4
f 36/69/11 24/69/11 40/69/11
f 19/70/2 35/38/2 36/40/2
f 22/69/2 38/69/2 42/69/2
f 48/72/11 18/264/11 20/73/11
f 43/75/5 39/90/5 51/76/5
f 42/78/4 46/265/4 43/79/4
f 41/69/11 40/69/11 51/69/11
f 18/81/4 48/266/4 47/82/4
f 54/83/12 36/113/12 98/84/12
f 97/86/3 82/267/3 20/87/3
f 18/89/5 20/268/5 51/76/5
f 56/91/1 58/269/1 57/92/1
f 58/94/2 62/270/2 61/95/2
f 62/97/3 60/271/3 59/98/3
f 60/100/4 56/272/4 55/101/4
f 61/103/5 59/273/5 55/104/5
f 58/106/11 56/274/11 60/107/11
f 46/109/3 54/219/3 53/110/3
f 54/83/12 46/275/12 38/112/12
f 50/114/1 47/218/1 48/115/1
f 50/117/5 35/248/5 34/118/5
f 51/120/1 113/88/1 114/121/1
f 37/125/3 23/276/3 36/123/3
f 36/123/3 38/277/3 21/124/3
f 33/128/1 17/278/1 34/126/1
f 34/126/1 35/279/1 19/127/1
f 65/129/1 66/146/1 64/130/1
f 69/50/4 70/151/4 66/132/4
f 67/134/3 68/143/3 70/135/3
f 63/137/2 64/149/2 68/138/2
f 63/140/5 67/280/5 69/141/5
f 74/142/3 73/145/3 70/135/3
f 78/144/3 77/281/3 73/145/3
f 66/146/1 72/153/1 71/147/1
f 71/148/13 74/282/13 68/138/13
f 73/150/14 72/283/14 66/132/14
f 78/27/15 75/29/15 76/36/15
f 72/153/1 76/284/1 75/154/1
f 75/155/16 78/285/16 74/156/16
f 77/158/17 76/286/17 72/35/17
f 97/159/4 98/40/4 86/39/4
f 96/160/2 80/199/2 84/161/2
f 79/163/5 83/287/5 99/164/5
f 89/166/1 90/69/1 88/167/1
f 93/169/4 94/288/4 90/170/4
f 91/172/3 92/289/3 94/173/3
f 87/175/2 88/290/2 92/176/2
f 87/178/5 91/291/5 93/179/5
f 92/181/11 88/292/11 90/182/11
f 95/165/5 99/164/5 85/184/5
f 79/186/2 96/160/2 100/162/2
f 98/69/11 103/69/11 102/69/11
f 81/188/4 85/71/4 98/40/4
f 84/69/11 101/69/11 104/69/11
f 82/189/11 80/293/11 110/190/11
f 113/192/5 101/201/5 105/193/5
f 105/195/2 108/294/2 104/196/2
f 103/69/11 114/69/11 113/69/11
f 109/198/2 110/295/2 80/199/2
f 113/192/5 115/194/5 53/77/5
f 82/189/11 111/191/11 49/74/11
f 113/192/5 82/296/5 80/200/5
f 119/202/1 120/297/1 118/203/1
f 123/101/4 124/272/4 120/205/4
f 121/207/3 122/93/3 124/92/3
f 117/209/2 118/215/2 122/210/2
f 117/212/5 121/298/5 123/103/5
f 122/213/11 118/299/11 120/214/11
f 115/216/3 116/300/3 108/217/3
f 54/219/3 116/300/3 115/216/3
f 110/220/1 109/111/1 112/110/1
f 96/222/5 97/301/5 112/223/5
f 116/85/12 98/84/12 100/224/12
f 98/228/3 85/302/3 99/226/3
f 99/226/3 83/303/3 100/227/3
f 96/231/1 79/304/1 95/229/1
f 95/229/1 81/305/1 97/230/1
f 129/232/11 131/306/11 127/233/11
f 127/235/4 131/307/4 132/236/4
f 131/238/1 129/308/1 130/239/1
f 126/240/5 128/309/5 132/241/5
f 125/243/3 127/310/3 128/244/3
f 129/245/2 125/244/2 126/246/2
f 112/110/1 50/114/1 49/116/1
f 112/223/5 97/301/5 35/248/5
l 45 54
l 53 44
l 107 116
l 115 106
